HIERARCHY
ROOT joint_Root
{
	OFFSET 0.0 0.0 0.0
	CHANNELS 6 Xposition Yposition Zposition Zrotation Xrotation Yrotation 
	JOINT Hips
	{
		OFFSET 4.5925 91.4895 -427.239
		CHANNELS 6 Xposition Yposition Zposition Zrotation Xrotation Yrotation 
		JOINT Spine
		{
			OFFSET 15.7357 0.0 0.0
			CHANNELS 6 Xposition Yposition Zposition Zrotation Xrotation Yrotation 
			JOINT Chest
			{
				OFFSET 8.98455 -0.406207 0.0
				CHANNELS 6 Xposition Yposition Zposition Zrotation Xrotation Yrotation 
				JOINT Neck
				{
					OFFSET 16.3773 0.0 0.0
					CHANNELS 6 Xposition Yposition Zposition Zrotation Xrotation Yrotation 
					JOINT Head
					{
						OFFSET 6.45672 0.0 0.0
						CHANNELS 6 Xposition Yposition Zposition Zrotation Xrotation Yrotation 
						End Site
						{
							OFFSET 0.0 0.0 0.0
						}
					}
				}
				JOINT Shoulder_L
				{
					OFFSET 12.9942 -0.242716 4.98039
					CHANNELS 6 Xposition Yposition Zposition Zrotation Xrotation Yrotation 
					JOINT UpperArm_L
					{
						OFFSET 5.34809 0.0 0.0
						CHANNELS 6 Xposition Yposition Zposition Zrotation Xrotation Yrotation 
						JOINT LowerArm_L
						{
							OFFSET 24.3286 1.87007e-05 0.0
							CHANNELS 6 Xposition Yposition Zposition Zrotation Xrotation Yrotation 
							JOINT Hand_L
							{
								OFFSET 22.2916 0.0 0.0
								CHANNELS 6 Xposition Yposition Zposition Zrotation Xrotation Yrotation 
								End Site
								{
									OFFSET 0.0 0.0 0.0
								}
							}
						}
					}
				}
				JOINT Shoulder_R
				{
					OFFSET 12.9945 -0.242716 -4.98039
					CHANNELS 6 Xposition Yposition Zposition Zrotation Xrotation Yrotation 
					JOINT UpperArm_R
					{
						OFFSET -5.34813 0.0 0.0
						CHANNELS 6 Xposition Yposition Zposition Zrotation Xrotation Yrotation 
						JOINT LowerArm_R
						{
							OFFSET -24.3289 0.000322201 0.0
							CHANNELS 6 Xposition Yposition Zposition Zrotation Xrotation Yrotation 
							JOINT Hand_R
							{
								OFFSET -22.2915 -0.000108084 0.0
								CHANNELS 6 Xposition Yposition Zposition Zrotation Xrotation Yrotation 
								End Site
								{
									OFFSET 0.0 0.0 0.0
								}
							}
						}
					}
				}
			}
		}
		JOINT UpperLeg_L
		{
			OFFSET -2.19248 -6.46944 0.0
			CHANNELS 6 Xposition Yposition Zposition Zrotation Xrotation Yrotation 
			JOINT LowerLeg_L
			{
				OFFSET 39.0811 0.0 -1.23785e-05
				CHANNELS 6 Xposition Yposition Zposition Zrotation Xrotation Yrotation 
				JOINT Foot_L
				{
					OFFSET 40.9854 0.0 -1.26872e-05
					CHANNELS 6 Xposition Yposition Zposition Zrotation Xrotation Yrotation 
					JOINT Toes_L
					{
						OFFSET 11.7543 0.0 0.0
						CHANNELS 6 Xposition Yposition Zposition Zrotation Xrotation Yrotation 
						End Site
						{
							OFFSET 0.0 0.0 0.0
						}
					}
				}
			}
		}
		JOINT UpperLeg_R
		{
			OFFSET -2.19251 6.46944 0.0
			CHANNELS 6 Xposition Yposition Zposition Zrotation Xrotation Yrotation 
			JOINT LowerLeg_R
			{
				OFFSET -39.0811 -0.00228153 -0.0401928
				CHANNELS 6 Xposition Yposition Zposition Zrotation Xrotation Yrotation 
				JOINT Foot_R
				{
					OFFSET -40.9854 0.0 0.0
					CHANNELS 6 Xposition Yposition Zposition Zrotation Xrotation Yrotation 
					JOINT Toes_R
					{
						OFFSET -11.7543 0.0 0.0
						CHANNELS 6 Xposition Yposition Zposition Zrotation Xrotation Yrotation 
						End Site
						{
							OFFSET 0.0 0.0 0.0
						}
					}
				}
			}
		}
	}
}
MOTION
Frames:	8
Frame Time:	0.0333333
0.000000 0.000000 0.000000 0.000000 0.000000 -0.000000 -0.957248 88.155800 -50.105700 90.241000 -14.467700 0.857787 15.735700 0.000005 -0.000001 111.109000 83.708900 -111.450000 8.984550 -0.406207 -0.000000 3.995900 4.536120 -0.839416 16.377300 -0.000001 -0.000001 -4.272780 -4.410610 3.007340 6.456720 -0.000001 -0.000000 -12.425900 -7.321220 4.459750 12.994200 -0.242716 4.980390 -90.505100 1.463420 -70.957000 5.348090 -0.000007 -0.000001 -66.350700 12.516300 15.717600 24.328600 0.000019 0.000005 0.138338 32.149500 -0.260214 22.291600 -0.000001 0.000005 12.908900 4.888120 9.611970 12.994500 -0.242716 -4.980390 89.023700 8.769900 -83.622200 -5.348130 -0.000001 -0.000004 -48.664100 28.757700 -45.257800 -24.328900 0.000322 -0.000009 -1.664060 -0.970708 -59.730000 -22.291500 -0.000108 -0.000004 22.905200 5.469550 -5.352410 -2.192480 -6.469440 -0.000000 177.967000 -10.656700 -30.750800 39.081100 -0.000007 -0.000012 0.079036 -0.110366 35.607200 40.985400 -0.000006 -0.000013 2.935160 2.413580 -54.851900 11.754300 -0.000000 0.000003 -0.002161 -0.030720 -17.826000 -2.192510 6.469440 -0.000001 171.895000 5.628150 -171.559000 -39.081100 -0.002282 -0.040193 0.081291 -0.106914 36.114000 -40.985400 0.000008 0.000006 16.208400 21.710100 -67.644800 -11.754300 -0.000006 -0.000006 -0.218878 -0.675578 -45.675700
0.000000 0.000000 0.000000 0.000000 0.000000 -0.000000 -0.469931 87.510500 -44.850700 90.112900 -14.448700 2.038970 15.735700 0.000005 -0.000001 110.469000 83.516200 -110.885000 8.984550 -0.406207 -0.000000 4.410740 4.539310 -1.007840 16.377300 -0.000001 -0.000001 -3.872490 -4.777650 2.896090 6.456720 -0.000001 -0.000000 -11.538000 -8.125180 4.727550 12.994200 -0.242716 4.980390 -90.582900 1.686540 -70.931000 5.348090 -0.000007 -0.000001 -65.203000 11.325800 15.225600 24.328600 0.000019 0.000005 -0.000029 34.360000 -0.000004 22.291600 -0.000001 0.000005 13.621300 4.725550 12.695300 12.994500 -0.242716 -4.980390 88.988000 9.062510 -83.601200 -5.348130 -0.000001 -0.000004 -49.515300 28.662500 -43.132500 -24.328900 0.000322 -0.000009 -1.903940 -0.952408 -63.418100 -22.291500 -0.000108 -0.000004 23.867100 5.487130 -6.023830 -2.192480 -6.469440 -0.000000 177.965000 -9.454870 -29.372900 39.081100 -0.000007 -0.000012 -0.022237 0.024242 42.533900 40.985400 -0.000006 -0.000013 3.347640 1.060360 -61.906400 11.754300 -0.000000 0.000003 -0.000028 -0.000338 -16.590700 -2.192510 6.469440 -0.000001 170.962000 4.568410 -172.075000 -39.081100 -0.002282 -0.040193 0.108311 -0.114673 42.489400 -40.985400 0.000008 0.000006 14.445600 22.553600 -59.555300 -11.754300 -0.000006 -0.000006 -0.315835 -0.809706 -52.389900
0.000000 0.000000 0.000000 0.000000 0.000000 -0.000000 0.128974 87.149800 -39.602700 90.539600 -15.159100 4.024910 15.735700 0.000005 -0.000001 111.045000 82.902800 -111.694000 8.984550 -0.406207 -0.000000 5.528050 5.097980 -1.544710 16.377300 -0.000001 -0.000001 -3.341440 -5.060150 2.450840 6.456720 -0.000001 -0.000000 -10.964700 -8.761820 4.325560 12.994200 -0.242716 4.980390 -90.600200 1.739100 -70.955500 5.348090 -0.000007 -0.000001 -64.690900 9.382920 12.945000 24.328600 0.000019 0.000005 0.000053 35.499000 -0.000004 22.291600 -0.000001 0.000005 13.135600 4.615680 14.643900 12.994500 -0.242716 -4.980390 89.020000 9.007790 -83.764600 -5.348130 -0.000001 -0.000004 -51.311100 28.764100 -40.269200 -24.328900 0.000322 -0.000009 -1.419700 -0.678002 -64.454700 -22.291500 -0.000108 -0.000004 23.934200 5.497760 -6.443550 -2.192480 -6.469440 -0.000000 177.130000 -9.768750 -25.423800 39.081100 -0.000007 -0.000012 -0.090753 0.087463 46.058800 40.985400 -0.000006 -0.000013 4.071240 0.170992 -67.580200 11.754300 -0.000000 0.000003 -0.000145 -0.001413 -16.631300 -2.192510 6.469440 -0.000001 170.052000 2.319690 -174.578000 -39.081100 -0.002282 -0.040193 0.107513 -0.083814 51.207300 -40.985400 0.000008 0.000006 10.365900 21.939900 -48.392200 -11.754300 -0.000006 -0.000006 -0.224626 -0.684525 -46.106900
0.000000 0.000000 0.000000 0.000000 0.000000 -0.000000 0.776336 87.004200 -35.025000 90.812800 -16.258600 5.004700 15.735700 0.000005 -0.000001 110.768000 82.737700 -111.505000 8.984550 -0.406207 -0.000000 5.866970 5.149220 -1.738240 16.377300 -0.000001 -0.000001 -2.775470 -4.778840 2.106790 6.456720 -0.000001 -0.000000 -10.137300 -8.333500 2.194800 12.994200 -0.242716 4.980390 -90.946900 2.646370 -70.305300 5.348090 -0.000007 -0.000001 -64.439200 9.057070 10.262700 24.328600 0.000019 0.000005 -0.000163 33.135900 -0.000004 22.291600 -0.000001 0.000005 11.565200 4.716690 12.853700 12.994500 -0.242716 -4.980390 89.060100 9.017600 -84.024700 -5.348130 -0.000001 -0.000004 -52.055200 30.495100 -38.806100 -24.328900 0.000322 -0.000009 -1.765490 -0.972380 -61.149600 -22.291500 -0.000108 -0.000004 23.833700 5.508600 -6.883760 -2.192480 -6.469440 -0.000000 176.249000 -11.149500 -21.727000 39.081100 -0.000007 -0.000012 -0.126302 0.116778 47.244600 40.985400 -0.000006 -0.000013 4.921460 -0.384499 -71.735000 11.754300 -0.000000 0.000003 -0.000254 -0.002266 -16.662400 -2.192510 6.469440 -0.000001 169.775000 -0.311536 179.782000 -39.081100 -0.002282 -0.040193 0.109609 -0.061581 59.941300 -40.985400 0.000008 0.000006 0.819023 16.912400 -33.544600 -11.754300 -0.000006 -0.000006 -0.058338 -0.326333 -30.043800
0.000000 0.000000 0.000000 0.000000 0.000000 -0.000000 1.182200 87.181800 -30.924200 90.663700 -15.718200 5.430390 15.735700 0.000005 -0.000001 106.941000 82.906700 -107.566000 8.984550 -0.406207 -0.000000 5.839700 4.133820 -1.459700 16.377300 -0.000001 -0.000001 -2.220510 -4.806280 1.690520 6.456720 -0.000001 -0.000000 -9.147210 -7.559800 -0.477989 12.994200 -0.242716 4.980390 -91.331300 3.696390 -70.176900 5.348090 -0.000007 -0.000001 -64.947900 10.560800 7.119130 24.328600 0.000019 0.000005 0.787505 29.586400 -1.595140 22.291600 -0.000001 0.000005 10.509400 4.886320 9.649150 12.994500 -0.242716 -4.980390 89.013000 8.996060 -83.712600 -5.348130 -0.000001 -0.000004 -52.250100 33.356900 -38.022400 -24.328900 0.000322 -0.000009 -2.344980 -1.690130 -54.224400 -22.291500 -0.000108 -0.000004 23.137100 5.508900 -6.896200 -2.192480 -6.469440 -0.000000 175.855000 -10.998100 -17.792200 39.081100 -0.000007 -0.000012 -0.136119 0.129321 46.467800 40.985400 -0.000006 -0.000013 5.619240 -0.513970 -74.484000 11.754300 -0.000000 0.000003 -0.000285 -0.002493 -16.670600 -2.192510 6.469440 -0.000001 169.994000 0.166950 174.333000 -39.081100 -0.002282 -0.040193 0.156545 -0.065263 66.952700 -40.985400 0.000008 0.000006 -2.722900 7.920570 -27.031000 -11.754300 -0.000006 -0.000006 -0.027947 -0.207896 -25.085300
0.000000 0.000000 0.000000 0.000000 0.000000 -0.000000 1.386240 87.988300 -26.855800 90.159400 -14.002900 5.341580 15.735700 0.000005 -0.000001 101.408000 83.245300 -101.811000 8.984550 -0.406207 -0.000000 5.490580 2.673960 -0.932616 16.377300 -0.000001 -0.000001 -1.653100 -5.078180 1.206140 6.456720 -0.000001 -0.000000 -8.226000 -7.032260 -2.761490 12.994200 -0.242716 4.980390 -91.535100 4.371430 -70.628700 5.348090 -0.000007 -0.000001 -66.045800 14.016000 3.219390 24.328600 0.000019 0.000005 2.722710 26.807600 -6.019870 22.291600 -0.000001 0.000005 10.974800 4.992410 7.481620 12.994500 -0.242716 -4.980390 88.945700 8.872730 -83.196200 -5.348130 -0.000001 -0.000004 -53.382700 36.056500 -36.389200 -24.328900 0.000322 -0.000009 -2.056150 -2.070280 -44.805800 -22.291500 -0.000108 -0.000004 21.093500 5.496430 -6.387900 -2.192480 -6.469440 -0.000000 175.916000 -9.936280 -12.802300 39.081100 -0.000007 -0.000012 -0.140796 0.152538 42.708400 40.985400 -0.000006 -0.000013 6.213190 -0.172096 -75.636000 11.754300 -0.000000 0.000003 -0.000301 -0.002611 -16.674800 -2.192510 6.469440 -0.000001 171.498000 2.108140 170.722000 -39.081100 -0.002282 -0.040193 0.102452 -0.033996 71.110300 -40.985400 0.000008 0.000006 2.824230 3.837600 -36.030500 -11.754300 -0.000006 -0.000006 -0.025929 -0.198161 -24.682300
0.000000 0.000000 0.000000 0.000000 0.000000 -0.000000 1.449550 88.983200 -22.921500 89.384100 -11.250900 4.961700 15.735700 0.000005 -0.000001 94.644800 83.624100 -94.727300 8.984550 -0.406207 -0.000000 4.945230 1.032590 -0.209317 16.377300 -0.000001 -0.000001 -1.032980 -5.623010 0.675594 6.456720 -0.000001 -0.000000 -7.515070 -6.856180 -4.117980 12.994200 -0.242716 4.980390 -91.561800 4.661260 -71.452900 5.348090 -0.000007 -0.000001 -66.877400 19.455300 -1.846440 24.328600 0.000019 0.000005 4.436400 24.481300 -10.604800 22.291600 -0.000001 0.000005 12.870500 5.053320 6.164770 12.994500 -0.242716 -4.980390 88.838300 8.913950 -82.544200 -5.348130 -0.000001 -0.000004 -55.430700 37.930600 -32.878000 -24.328900 0.000322 -0.000009 -1.408960 -2.015070 -34.944800 -22.291500 -0.000108 -0.000004 18.457100 5.458600 -4.946100 -2.192480 -6.469440 -0.000000 176.339000 -9.036520 -7.371090 39.081100 -0.000007 -0.000012 -0.026610 0.034918 37.311400 40.985400 -0.000006 -0.000013 8.338020 0.949369 -75.956900 11.754300 -0.000000 0.000003 -0.755537 -1.003550 -16.007800 -2.192510 6.469440 -0.000001 173.645000 4.875790 167.679000 -39.081100 -0.002282 -0.040193 0.063496 -0.019966 71.710300 -40.985400 0.000008 0.000006 6.009590 -1.062710 -44.126000 -11.754300 -0.000006 -0.000006 -0.022693 -0.181772 -24.005100
0.000000 0.000000 0.000000 0.000000 0.000000 -0.000000 1.519220 89.936800 -19.392400 88.741400 -7.766380 3.932540 15.735700 0.000005 -0.000001 87.263400 84.091300 -87.052900 8.984550 -0.406207 -0.000000 4.039060 -0.570223 0.440720 16.377300 -0.000001 -0.000001 -0.759804 -6.408190 0.224394 6.456720 -0.000001 -0.000000 -6.952770 -7.036370 -4.485790 12.994200 -0.242716 4.980390 -91.502300 4.783210 -72.540600 5.348090 -0.000007 -0.000001 -66.419900 25.649400 -8.293100 24.328600 0.000019 0.000005 5.809100 21.882800 -15.268200 22.291600 -0.000001 0.000005 14.177300 5.102720 5.051190 12.994500 -0.242716 -4.980390 88.712200 9.057820 -81.873700 -5.348130 -0.000001 -0.000004 -58.717500 37.910500 -27.265700 -24.328900 0.000322 -0.000009 -0.228716 -0.474333 -25.581600 -22.291500 -0.000108 -0.000004 15.875000 5.408720 -3.220730 -2.192480 -6.469440 -0.000000 176.743000 -7.531760 -4.207230 39.081100 -0.000007 -0.000012 0.061325 -0.092781 33.463000 40.985400 -0.000006 -0.000013 9.948510 2.711300 -73.359600 11.754300 -0.000000 0.000003 -1.211520 -1.577090 -18.599300 -2.192510 6.469440 -0.000001 176.022000 7.665710 163.853000 -39.081100 -0.002282 -0.040193 0.040675 -0.014170 69.327400 -40.985400 0.000008 0.000006 6.437430 -5.862410 -47.908900 -11.754300 -0.000006 -0.000006 -0.021780 -0.176957 -23.806400
